<?xml version="1.0" encoding="utf-8"?><!-- Uploaded to: SVG Repo, www.svgrepo.com, Generator: SVG Repo Mixer Tools -->
<svg fill="#000000" width="800px" height="800px" viewBox="0 0 24 24" id="discord" data-name="Flat Color" xmlns="http://www.w3.org/2000/svg" class="icon flat-color"><path id="primary" d="M20.11,6.25A2,2,0,0,0,18.9,5.06,24.45,24.45,0,0,0,12,4,24.45,24.45,0,0,0,5.1,5.06,2,2,0,0,0,3.89,6.25,30.79,30.79,0,0,0,2,16.67a1.08,1.08,0,0,0,.21.62A8.31,8.31,0,0,0,7.93,20a1,1,0,0,0,1-.7l.76-2.49A17.94,17.94,0,0,0,12,17a17.94,17.94,0,0,0,2.28-.19L15,19.3a1,1,0,0,0,1,.7h.07a8.31,8.31,0,0,0,5.72-2.71,1.08,1.08,0,0,0,.21-.62A30.79,30.79,0,0,0,20.11,6.25Z" style="fill: rgb(0, 0, 0);"></path><path id="secondary" d="M10.5,10A1.5,1.5,0,1,1,9,8.5,1.5,1.5,0,0,1,10.5,10ZM15,8.5A1.5,1.5,0,1,0,16.5,10,1.5,1.5,0,0,0,15,8.5Z" style="fill: rgb(44, 169, 188);"></path></svg>